<svg width="48" height="48" viewBox="0 0 48 48" fill="none" xmlns="http://www.w3.org/2000/svg">
<path d="M22.2857 17.8571C22.2857 10.7563 28.042 5 35.1429 5C42.2437 5 48 10.7563 48 17.8571V29.8571C48 36.9579 42.2437 42.7143 35.1429 42.7143C28.042 42.7143 22.2857 36.9579 22.2857 29.8571V17.8571Z" fill="#D3D3D3"/>
<path d="M22.2857 17.8571C22.2857 10.7563 28.042 5 35.1429 5C42.2437 5 48 10.7563 48 17.8571V29.8571C48 36.9579 42.2437 42.7143 35.1429 42.7143C28.042 42.7143 22.2857 36.9579 22.2857 29.8571V17.8571Z" fill="url(#paint0_radial_1460_1309)"/>
<path d="M22.2857 17.8571C22.2857 10.7563 28.042 5 35.1429 5C42.2437 5 48 10.7563 48 17.8571V29.8571C48 36.9579 42.2437 42.7143 35.1429 42.7143C28.042 42.7143 22.2857 36.9579 22.2857 29.8571V17.8571Z" fill="url(#paint1_linear_1460_1309)"/>
<path d="M22.2857 17.8571C22.2857 10.7563 28.042 5 35.1429 5C42.2437 5 48 10.7563 48 17.8571V29.8571C48 36.9579 42.2437 42.7143 35.1429 42.7143C28.042 42.7143 22.2857 36.9579 22.2857 29.8571V17.8571Z" fill="url(#paint2_radial_1460_1309)"/>
<path d="M22.2857 17.8571C22.2857 10.7563 28.042 5 35.1429 5C42.2437 5 48 10.7563 48 17.8571V29.8571C48 36.9579 42.2437 42.7143 35.1429 42.7143C28.042 42.7143 22.2857 36.9579 22.2857 29.8571V17.8571Z" fill="url(#paint3_radial_1460_1309)"/>
<path d="M22.2857 17.8571C22.2857 10.7563 28.042 5 35.1429 5C42.2437 5 48 10.7563 48 17.8571V29.8571C48 36.9579 42.2437 42.7143 35.1429 42.7143C28.042 42.7143 22.2857 36.9579 22.2857 29.8571V17.8571Z" fill="url(#paint4_radial_1460_1309)"/>
<path d="M22.2857 17.8571C22.2857 10.7563 28.042 5 35.1429 5C42.2437 5 48 10.7563 48 17.8571V29.8571C48 36.9579 42.2437 42.7143 35.1429 42.7143C28.042 42.7143 22.2857 36.9579 22.2857 29.8571V17.8571Z" fill="url(#paint5_radial_1460_1309)"/>
<path d="M22.2857 17.8571C22.2857 10.7563 28.042 5 35.1429 5C42.2437 5 48 10.7563 48 17.8571V29.8571C48 36.9579 42.2437 42.7143 35.1429 42.7143C28.042 42.7143 22.2857 36.9579 22.2857 29.8571V17.8571Z" fill="url(#paint6_radial_1460_1309)"/>
<g filter="url(#filter0_f_1460_1309)">
<path d="M23.3587 14.5092C23.3587 13.6874 24.0249 13.0212 24.8467 13.0212C25.6685 13.0212 26.3347 13.6874 26.3347 14.5092V31.5321C26.3347 32.3539 25.6685 33.0201 24.8467 33.0201C24.0249 33.0201 23.3587 32.3539 23.3587 31.5321V14.5092Z" fill="#686873"/>
</g>
<path d="M-0.000177383 17.8571C-0.000177383 10.7563 5.75616 5 12.857 5C19.9578 5 25.7141 10.7563 25.7141 17.8571V29.8571C25.7141 36.9579 19.9578 42.7143 12.857 42.7143C5.75616 42.7143 -0.000177383 36.9579 -0.000177383 29.8571V17.8571Z" fill="url(#paint7_radial_1460_1309)"/>
<path d="M-0.000177383 17.8571C-0.000177383 10.7563 5.75616 5 12.857 5C19.9578 5 25.7141 10.7563 25.7141 17.8571V29.8571C25.7141 36.9579 19.9578 42.7143 12.857 42.7143C5.75616 42.7143 -0.000177383 36.9579 -0.000177383 29.8571V17.8571Z" fill="url(#paint8_linear_1460_1309)"/>
<path d="M-0.000177383 17.8571C-0.000177383 10.7563 5.75616 5 12.857 5C19.9578 5 25.7141 10.7563 25.7141 17.8571V29.8571C25.7141 36.9579 19.9578 42.7143 12.857 42.7143C5.75616 42.7143 -0.000177383 36.9579 -0.000177383 29.8571V17.8571Z" fill="url(#paint9_radial_1460_1309)"/>
<path d="M12 19.5714C12 16.2577 14.6863 13.5714 18 13.5714C21.3137 13.5714 24 16.2577 24 19.5714V28.1428C24 31.4565 21.3137 34.1428 18 34.1428C14.6863 34.1428 12 31.4565 12 28.1428V19.5714Z" fill="url(#paint10_linear_1460_1309)"/>
<path d="M12 19.5714C12 16.2577 14.6863 13.5714 18 13.5714C21.3137 13.5714 24 16.2577 24 19.5714V28.1428C24 31.4565 21.3137 34.1428 18 34.1428C14.6863 34.1428 12 31.4565 12 28.1428V19.5714Z" fill="url(#paint11_radial_1460_1309)"/>
<path d="M34.1777 19.5714C34.1777 16.2577 36.864 13.5714 40.1777 13.5714C43.4914 13.5714 46.1777 16.2577 46.1777 19.5714V28.1428C46.1777 31.4565 43.4914 34.1428 40.1777 34.1428C36.864 34.1428 34.1777 31.4565 34.1777 28.1428V19.5714Z" fill="url(#paint12_linear_1460_1309)"/>
<path d="M34.1777 19.5714C34.1777 16.2577 36.864 13.5714 40.1777 13.5714C43.4914 13.5714 46.1777 16.2577 46.1777 19.5714V28.1428C46.1777 31.4565 43.4914 34.1428 40.1777 34.1428C36.864 34.1428 34.1777 31.4565 34.1777 28.1428V19.5714Z" fill="url(#paint13_radial_1460_1309)"/>
<path d="M36.4478 20.19C35.8111 19.66 35.8405 18.575 36.5134 17.7666C37.1863 16.9581 38.248 16.7324 38.8847 17.2624C39.5214 17.7924 39.4921 18.8774 38.8191 19.6858C38.1462 20.4943 37.0845 20.72 36.4478 20.19Z" fill="url(#paint14_radial_1460_1309)"/>
<path d="M14.169 20.19C13.5323 19.66 13.5617 18.575 14.2346 17.7666C14.9075 16.9581 15.9692 16.7324 16.6059 17.2624C17.2426 17.7924 17.2133 18.8774 16.5403 19.6858C15.8674 20.4943 14.8057 20.72 14.169 20.19Z" fill="url(#paint15_radial_1460_1309)"/>
<defs>
<filter id="filter0_f_1460_1309" x="22.4586" y="12.1212" width="4.77607" height="21.7989" filterUnits="userSpaceOnUse" color-interpolation-filters="sRGB">
<feFlood flood-opacity="0" result="BackgroundImageFix"/>
<feBlend mode="normal" in="SourceGraphic" in2="BackgroundImageFix" result="shape"/>
<feGaussianBlur stdDeviation="0.45" result="effect1_foregroundBlur_1460_1309"/>
</filter>
<radialGradient id="paint0_radial_1460_1309" cx="0" cy="0" r="1" gradientUnits="userSpaceOnUse" gradientTransform="translate(30.8037 14.4283) rotate(78.923) scale(36.2467 28.031)">
<stop stop-color="#EEF2FF"/>
<stop offset="0.457" stop-color="#E0E7FF"/>
<stop offset="0.708" stop-color="#E0E7FF"/>
<stop offset="1" stop-color="#A5B4FC"/>
</radialGradient>
<linearGradient id="paint1_linear_1460_1309" x1="53.4103" y1="26.6429" x2="36.8863" y2="28.8817" gradientUnits="userSpaceOnUse">
<stop offset="0.399" stop-color="#96969E"/>
<stop offset="1" stop-color="#9A959E" stop-opacity="0"/>
</linearGradient>
<radialGradient id="paint2_radial_1460_1309" cx="0" cy="0" r="1" gradientUnits="userSpaceOnUse" gradientTransform="translate(24.1971 31.64) rotate(-46.206) scale(34.393 37.2276)">
<stop offset="0.844" stop-color="#95959E" stop-opacity="0"/>
<stop offset="0.949" stop-color="#949296"/>
</radialGradient>
<radialGradient id="paint3_radial_1460_1309" cx="0" cy="0" r="1" gradientUnits="userSpaceOnUse" gradientTransform="translate(18.6804 29.9864) rotate(-24.613) scale(14.7154 35.7799)">
<stop offset="0.022" stop-color="#A5B4FC"/>
<stop offset="1" stop-color="#A5B4FC" stop-opacity="0"/>
</radialGradient>
<radialGradient id="paint4_radial_1460_1309" cx="0" cy="0" r="1" gradientUnits="userSpaceOnUse" gradientTransform="translate(23.508 27.6406) scale(9.5166 27.0326)">
<stop stop-color="#A5A5B0"/>
<stop offset="1" stop-color="#ABA5B0" stop-opacity="0"/>
</radialGradient>
<radialGradient id="paint5_radial_1460_1309" cx="0" cy="0" r="1" gradientUnits="userSpaceOnUse" gradientTransform="translate(19.232 31.5015) rotate(-42.847) scale(12.98 35.7641)">
<stop stop-color="#A5B4FC"/>
<stop offset="1" stop-color="#A5B4FC" stop-opacity="0"/>
</radialGradient>
<radialGradient id="paint6_radial_1460_1309" cx="0" cy="0" r="1" gradientUnits="userSpaceOnUse" gradientTransform="translate(26.6432 11.9754) rotate(39.036) scale(6.02535 11.4612)">
<stop stop-color="#F3F2F4"/>
<stop offset="1" stop-color="#F3F2F4" stop-opacity="0"/>
</radialGradient>
<radialGradient id="paint7_radial_1460_1309" cx="0" cy="0" r="1" gradientUnits="userSpaceOnUse" gradientTransform="translate(7.55499 16.9998) rotate(76.49) scale(33.9391 26.2464)">
<stop stop-color="#EEF2FF"/>
<stop offset="0.457" stop-color="#E0E7FF"/>
<stop offset="0.708" stop-color="#C7D2FE"/>
<stop offset="1" stop-color="#CFABE4"/>
<stop offset="1" stop-color="#A5B4FC"/>
</radialGradient>
<linearGradient id="paint8_linear_1460_1309" x1="31.1244" y1="26.6429" x2="14.8387" y2="28.1429" gradientUnits="userSpaceOnUse">
<stop offset="0.212" stop-color="#97969E"/>
<stop offset="1" stop-color="#9A959E" stop-opacity="0"/>
</linearGradient>
<radialGradient id="paint9_radial_1460_1309" cx="0" cy="0" r="1" gradientUnits="userSpaceOnUse" gradientTransform="translate(4.3574 11.9752) rotate(39.036) scale(6.02535 11.4612)">
<stop stop-color="#F3F2F4"/>
<stop offset="1" stop-color="#F3F2F4" stop-opacity="0"/>
</radialGradient>
<linearGradient id="paint10_linear_1460_1309" x1="18" y1="13.5714" x2="18" y2="34.1428" gradientUnits="userSpaceOnUse">
<stop offset="0.354" stop-color="#232224"/>
<stop offset="1" stop-color="#3730A3"/>
</linearGradient>
<radialGradient id="paint11_radial_1460_1309" cx="0" cy="0" r="1" gradientUnits="userSpaceOnUse" gradientTransform="translate(16.4469 22.7857) rotate(90) scale(11.3571 3.72657)">
<stop offset="0.354" stop-color="#312E81"/>
<stop offset="1" stop-color="#312E81" stop-opacity="0"/>
</radialGradient>
<linearGradient id="paint12_linear_1460_1309" x1="40.1777" y1="13.5714" x2="40.1777" y2="34.1428" gradientUnits="userSpaceOnUse">
<stop offset="0.354" stop-color="#232224"/>
<stop offset="1" stop-color="#3730A3"/>
</linearGradient>
<radialGradient id="paint13_radial_1460_1309" cx="0" cy="0" r="1" gradientUnits="userSpaceOnUse" gradientTransform="translate(38.6246 22.7857) rotate(90) scale(11.3571 3.72657)">
<stop offset="0.354" stop-color="#312E81"/>
<stop offset="1" stop-color="#312E81" stop-opacity="0"/>
</radialGradient>
<radialGradient id="paint14_radial_1460_1309" cx="0" cy="0" r="1" gradientUnits="userSpaceOnUse" gradientTransform="translate(38.5715 17.5905) rotate(92.2599) scale(4.07461 4.28806)">
<stop stop-color="white"/>
<stop offset="1" stop-color="#F4F4F4" stop-opacity="0"/>
</radialGradient>
<radialGradient id="paint15_radial_1460_1309" cx="0" cy="0" r="1" gradientUnits="userSpaceOnUse" gradientTransform="translate(16.2914 17.5894) rotate(92.2599) scale(4.07461 4.28806)">
<stop stop-color="white"/>
<stop offset="1" stop-color="#F4F4F4" stop-opacity="0"/>
</radialGradient>
</defs>
</svg>
