<svg width="20" height="20" viewBox="0 0 20 20" fill="none" xmlns="http://www.w3.org/2000/svg">
<path d="M7.49992 1.66667C6.57492 1.66667 5.83325 2.40833 5.83325 3.33333V16.6667C5.83325 17.5917 6.57492 18.3333 7.49992 18.3333H12.4999C13.4249 18.3333 14.1666 17.5917 14.1666 16.6667V3.33333C14.1666 2.40833 13.4249 1.66667 12.4999 1.66667H10.8333V3.33333H9.16659V1.66667H7.49992ZM9.16659 5H10.8333V6.66667H12.4999V8.33333H10.8333V10H9.16659V8.33333H7.49992V6.66667H9.16659V5ZM7.49992 11.6667H9.16659V13.3333H7.49992V11.6667ZM10.8333 11.6667H12.4999V13.3333H10.8333V11.6667ZM7.49992 15H9.16659V16.6667H7.49992V15ZM10.8333 15H12.4999V16.6667H10.8333V15Z" fill="black"/>
</svg>
