<svg width="40" height="40" viewBox="0 0 40 40" fill="none" xmlns="http://www.w3.org/2000/svg">
<path d="M15.0001 3.33334C13.1501 3.33334 11.6667 4.81667 11.6667 6.66667L11.6667 33.3333C11.6667 35.1833 13.1501 36.6667 15.0001 36.6667H25.0001C26.8501 36.6667 28.3334 35.1833 28.3334 33.3333V6.66667C28.3334 4.81667 26.8501 3.33334 25.0001 3.33334L21.6667 3.33334V6.66667H18.3334V3.33334L15.0001 3.33334ZM18.3334 10H21.6667V13.3333H25.0001V16.6667H21.6667V20H18.3334V16.6667H15.0001V13.3333H18.3334V10ZM15.0001 23.3333H18.3334V26.6667H15.0001L15.0001 23.3333ZM21.6667 23.3333H25.0001V26.6667H21.6667V23.3333ZM15.0001 30H18.3334V33.3333H15.0001V30ZM21.6667 30H25.0001V33.3333H21.6667V30Z" fill="#171717"/>
</svg>
