<svg width="178" height="40" viewBox="0 0 178 40" fill="none" xmlns="http://www.w3.org/2000/svg">
<path d="M150.545 13.6364C150.545 6.10521 156.651 0 164.182 0C171.713 0 177.818 6.10521 177.818 13.6364V26.3636C177.818 33.8948 171.713 40 164.182 40C156.651 40 150.545 33.8948 150.545 26.3636V13.6364Z" fill="#D3D3D3"/>
<path d="M150.545 13.6364C150.545 6.10521 156.651 0 164.182 0C171.713 0 177.818 6.10521 177.818 13.6364V26.3636C177.818 33.8948 171.713 40 164.182 40C156.651 40 150.545 33.8948 150.545 26.3636V13.6364Z" fill="url(#paint0_radial_1307_1043)"/>
<path d="M150.545 13.6364C150.545 6.10521 156.651 0 164.182 0C171.713 0 177.818 6.10521 177.818 13.6364V26.3636C177.818 33.8948 171.713 40 164.182 40C156.651 40 150.545 33.8948 150.545 26.3636V13.6364Z" fill="url(#paint1_linear_1307_1043)"/>
<path d="M150.545 13.6364C150.545 6.10521 156.651 0 164.182 0C171.713 0 177.818 6.10521 177.818 13.6364V26.3636C177.818 33.8948 171.713 40 164.182 40C156.651 40 150.545 33.8948 150.545 26.3636V13.6364Z" fill="url(#paint2_radial_1307_1043)"/>
<path d="M150.545 13.6364C150.545 6.10521 156.651 0 164.182 0C171.713 0 177.818 6.10521 177.818 13.6364V26.3636C177.818 33.8948 171.713 40 164.182 40C156.651 40 150.545 33.8948 150.545 26.3636V13.6364Z" fill="url(#paint3_radial_1307_1043)"/>
<path d="M150.545 13.6364C150.545 6.10521 156.651 0 164.182 0C171.713 0 177.818 6.10521 177.818 13.6364V26.3636C177.818 33.8948 171.713 40 164.182 40C156.651 40 150.545 33.8948 150.545 26.3636V13.6364Z" fill="url(#paint4_radial_1307_1043)"/>
<path d="M150.545 13.6364C150.545 6.10521 156.651 0 164.182 0C171.713 0 177.818 6.10521 177.818 13.6364V26.3636C177.818 33.8948 171.713 40 164.182 40C156.651 40 150.545 33.8948 150.545 26.3636V13.6364Z" fill="url(#paint5_radial_1307_1043)"/>
<path d="M150.545 13.6364C150.545 6.10521 156.651 0 164.182 0C171.713 0 177.818 6.10521 177.818 13.6364V26.3636C177.818 33.8948 171.713 40 164.182 40C156.651 40 150.545 33.8948 150.545 26.3636V13.6364Z" fill="url(#paint6_radial_1307_1043)"/>
<g filter="url(#filter0_f_1307_1043)">
<path d="M151.683 10.0855C151.683 9.2139 152.39 8.50732 153.262 8.50732C154.133 8.50732 154.84 9.2139 154.84 10.0855V28.14C154.84 29.0117 154.133 29.7182 153.262 29.7182C152.39 29.7182 151.683 29.0117 151.683 28.14V10.0855Z" fill="#686873"/>
</g>
<path d="M126.909 13.6364C126.909 6.10521 133.014 0 140.545 0C148.076 0 154.182 6.10521 154.182 13.6364V26.3636C154.182 33.8948 148.076 40 140.545 40C133.014 40 126.909 33.8948 126.909 26.3636V13.6364Z" fill="url(#paint7_radial_1307_1043)"/>
<path d="M126.909 13.6364C126.909 6.10521 133.014 0 140.545 0C148.076 0 154.182 6.10521 154.182 13.6364V26.3636C154.182 33.8948 148.076 40 140.545 40C133.014 40 126.909 33.8948 126.909 26.3636V13.6364Z" fill="url(#paint8_linear_1307_1043)"/>
<path d="M126.909 13.6364C126.909 6.10521 133.014 0 140.545 0C148.076 0 154.182 6.10521 154.182 13.6364V26.3636C154.182 33.8948 148.076 40 140.545 40C133.014 40 126.909 33.8948 126.909 26.3636V13.6364Z" fill="url(#paint9_radial_1307_1043)"/>
<path d="M139.636 15.4546C139.636 11.94 142.485 9.09094 146 9.09094C149.514 9.09094 152.364 11.94 152.364 15.4546V24.5455C152.364 28.06 149.514 30.9091 146 30.9091C142.485 30.9091 139.636 28.06 139.636 24.5455V15.4546Z" fill="url(#paint10_linear_1307_1043)"/>
<path d="M139.636 15.4546C139.636 11.94 142.485 9.09094 146 9.09094C149.514 9.09094 152.364 11.94 152.364 15.4546V24.5455C152.364 28.06 149.514 30.9091 146 30.9091C142.485 30.9091 139.636 28.06 139.636 24.5455V15.4546Z" fill="url(#paint11_radial_1307_1043)"/>
<path d="M163.158 15.4546C163.158 11.94 166.007 9.09094 169.522 9.09094C173.036 9.09094 175.885 11.94 175.885 15.4546V24.5455C175.885 28.06 173.036 30.9091 169.522 30.9091C166.007 30.9091 163.158 28.06 163.158 24.5455V15.4546Z" fill="url(#paint12_linear_1307_1043)"/>
<path d="M163.158 15.4546C163.158 11.94 166.007 9.09094 169.522 9.09094C173.036 9.09094 175.885 11.94 175.885 15.4546V24.5455C175.885 28.06 173.036 30.9091 169.522 30.9091C166.007 30.9091 163.158 28.06 163.158 24.5455V15.4546Z" fill="url(#paint13_radial_1307_1043)"/>
<path d="M165.566 16.1107C164.89 15.5486 164.922 14.3978 165.635 13.5404C166.349 12.6829 167.475 12.4435 168.15 13.0056C168.826 13.5678 168.794 14.7185 168.081 15.576C167.367 16.4334 166.241 16.6728 165.566 16.1107Z" fill="url(#paint14_radial_1307_1043)"/>
<path d="M141.937 16.1107C141.261 15.5486 141.293 14.3978 142.006 13.5404C142.72 12.6829 143.846 12.4435 144.521 13.0056C145.197 13.5678 145.166 14.7185 144.452 15.576C143.738 16.4334 142.612 16.6728 141.937 16.1107Z" fill="url(#paint15_radial_1307_1043)"/>
<path fill-rule="evenodd" clip-rule="evenodd" d="M0 17.3918H3.31751L4.73639 13.1611H11.1867L12.6082 17.3918H15.9257L9.87713 0.234573H6.04021L0 17.3918ZM10.3479 10.6646L8.02569 3.75314H7.89165L5.57367 10.6646H10.3479Z" fill="#818CF8"/>
<path d="M26.2448 3.24211C26.8256 3.64982 27.1551 4.21949 27.2333 4.95113H30.2241C30.2073 3.98492 29.9365 3.13041 29.4115 2.3876C28.8865 1.63921 28.1632 1.05557 27.2417 0.636695C26.3257 0.212233 25.259 0 24.0415 0C22.8407 0 21.7656 0.212233 20.8161 0.636695C19.8667 1.05557 19.1155 1.64479 18.5626 2.40436C18.0152 3.16392 17.7416 4.04915 17.7416 5.06004C17.7416 6.28875 18.1493 7.27451 18.9647 8.01731C19.7857 8.75454 20.9027 9.30466 22.3157 9.66769L24.2677 10.1703C24.882 10.3267 25.4182 10.5054 25.8762 10.7065C26.3397 10.902 26.6999 11.1477 26.9569 11.4437C27.2138 11.7342 27.345 12.1028 27.3506 12.5496C27.345 13.0411 27.197 13.4711 26.9066 13.8397C26.6162 14.2027 26.214 14.4876 25.7002 14.6942C25.192 14.8953 24.6 14.9958 23.9242 14.9958C23.2763 14.9958 22.6899 14.8981 22.1649 14.7026C21.6455 14.5071 21.2238 14.2111 20.8999 13.8146C20.576 13.418 20.3916 12.921 20.347 12.3234H17.2892C17.3338 13.4627 17.6299 14.4289 18.1772 15.222C18.7301 16.0151 19.4953 16.6183 20.4726 17.0316C21.4556 17.4448 22.6145 17.6515 23.9493 17.6515C25.3232 17.6515 26.4933 17.4393 27.4595 17.0148C28.4313 16.5848 29.1741 15.9899 29.6879 15.2304C30.2018 14.4652 30.4587 13.58 30.4587 12.5747C30.4587 11.8319 30.319 11.184 30.0398 10.6311C29.7605 10.0782 29.3808 9.60626 28.9004 9.2153C28.4257 8.82435 27.8868 8.50042 27.2836 8.24351C26.686 7.9866 26.0632 7.78274 25.4154 7.63195L23.8069 7.22983C23.455 7.14605 23.106 7.04273 22.7597 6.91986C22.4134 6.79699 22.0979 6.64619 21.813 6.46747C21.5282 6.28316 21.302 6.05976 21.1345 5.79726C20.9725 5.53477 20.8915 5.2248 20.8915 4.86736C20.8971 4.43731 21.0228 4.05473 21.2685 3.71963C21.5142 3.38453 21.8689 3.11924 22.3324 2.92377C22.796 2.72829 23.3517 2.63055 23.9996 2.63055C24.9211 2.63055 25.6695 2.83441 26.2448 3.24211Z" fill="#818CF8"/>
<path d="M41.5652 3.24211C42.146 3.64982 42.4756 4.21949 42.5538 4.95113H45.5445C45.5278 3.98492 45.2569 3.13041 44.7319 2.3876C44.2069 1.63921 43.4837 1.05557 42.5621 0.636695C41.6462 0.212233 40.5794 0 39.3619 0C38.1611 0 37.086 0.212233 36.1366 0.636695C35.1871 1.05557 34.4359 1.64479 33.883 2.40436C33.3357 3.16392 33.062 4.04915 33.062 5.06004C33.062 6.28875 33.4697 7.27451 34.2851 8.01731C35.1061 8.75454 36.2231 9.30466 37.6361 9.66769L39.5881 10.1703C40.2025 10.3267 40.7386 10.5054 41.1966 10.7065C41.6601 10.902 42.0204 11.1477 42.2773 11.4437C42.5342 11.7342 42.6655 12.1028 42.671 12.5496C42.6655 13.0411 42.5175 13.4711 42.227 13.8397C41.9366 14.2027 41.5345 14.4876 41.0207 14.6942C40.5124 14.8953 39.9204 14.9958 39.2446 14.9958C38.5968 14.9958 38.0103 14.8981 37.4853 14.7026C36.9659 14.5071 36.5443 14.2111 36.2203 13.8146C35.8964 13.418 35.7121 12.921 35.6674 12.3234H32.6096C32.6543 13.4627 32.9503 14.4289 33.4976 15.222C34.0505 16.0151 34.8157 16.6183 35.7931 17.0316C36.776 17.4448 37.9349 17.6515 39.2698 17.6515C40.6437 17.6515 41.8137 17.4393 42.7799 17.0148C43.7517 16.5848 44.4946 15.9899 45.0084 15.2304C45.5222 14.4652 45.7791 13.58 45.7791 12.5747C45.7791 11.8319 45.6395 11.184 45.3602 10.6311C45.081 10.0782 44.7012 9.60626 44.2209 9.2153C43.7462 8.82435 43.2072 8.50042 42.604 8.24351C42.0064 7.9866 41.3837 7.78274 40.7358 7.63195L39.1273 7.22983C38.7755 7.14605 38.4264 7.04273 38.0801 6.91986C37.7339 6.79699 37.4183 6.64619 37.1335 6.46747C36.8486 6.28316 36.6224 6.05976 36.4549 5.79726C36.2929 5.53477 36.2119 5.2248 36.2119 4.86736C36.2175 4.43731 36.3432 4.05473 36.5889 3.71963C36.8347 3.38453 37.1893 3.11924 37.6529 2.92377C38.1164 2.72829 38.6722 2.63055 39.32 2.63055C40.2416 2.63055 40.9899 2.83441 41.5652 3.24211Z" fill="#818CF8"/>
<path d="M51.6581 17.3918V0.234573H48.55V17.3918H51.6581Z" fill="#818CF8"/>
<path d="M63.3594 3.24211C63.9402 3.64982 64.2698 4.21949 64.3479 4.95113H67.3387C67.322 3.98492 67.0511 3.13041 66.5261 2.3876C66.0011 1.63921 65.2779 1.05557 64.3563 0.636695C63.4404 0.212233 62.3736 0 61.1561 0C59.9553 0 58.8802 0.212233 57.9307 0.636695C56.9813 1.05557 56.2301 1.64479 55.6772 2.40436C55.1298 3.16392 54.8562 4.04915 54.8562 5.06004C54.8562 6.28875 55.2639 7.27451 56.0793 8.01731C56.9003 8.75454 58.0173 9.30466 59.4303 9.66769L61.3823 10.1703C61.9966 10.3267 62.5328 10.5054 62.9908 10.7065C63.4543 10.902 63.8146 11.1477 64.0715 11.4437C64.3284 11.7342 64.4596 12.1028 64.4652 12.5496C64.4596 13.0411 64.3116 13.4711 64.0212 13.8397C63.7308 14.2027 63.3287 14.4876 62.8148 14.6942C62.3066 14.8953 61.7146 14.9958 61.0388 14.9958C60.3909 14.9958 59.8045 14.8981 59.2795 14.7026C58.7601 14.5071 58.3384 14.2111 58.0145 13.8146C57.6906 13.418 57.5063 12.921 57.4616 12.3234H54.4038C54.4485 13.4627 54.7445 14.4289 55.2918 15.222C55.8447 16.0151 56.6099 16.6183 57.5873 17.0316C58.5702 17.4448 59.7291 17.6515 61.0639 17.6515C62.4379 17.6515 63.6079 17.4393 64.5741 17.0148C65.5459 16.5848 66.2887 15.9899 66.8026 15.2304C67.3164 14.4652 67.5733 13.58 67.5733 12.5747C67.5733 11.8319 67.4337 11.184 67.1544 10.6311C66.8752 10.0782 66.4954 9.60626 66.0151 9.2153C65.5404 8.82435 65.0014 8.50042 64.3982 8.24351C63.8006 7.9866 63.1779 7.78274 62.53 7.63195L60.9215 7.22983C60.5697 7.14605 60.2206 7.04273 59.8743 6.91986C59.5281 6.79699 59.2125 6.64619 58.9277 6.46747C58.6428 6.28316 58.4166 6.05976 58.2491 5.79726C58.0871 5.53477 58.0061 5.2248 58.0061 4.86736C58.0117 4.43731 58.1374 4.05473 58.3831 3.71963C58.6289 3.38453 58.9835 3.11924 59.4471 2.92377C59.9106 2.72829 60.4663 2.63055 61.1142 2.63055C62.0357 2.63055 62.7841 2.83441 63.3594 3.24211Z" fill="#818CF8"/>
<path d="M69.5902 0.234573V2.83999H74.8932V17.3918H77.9761V2.83999H83.2791V0.234573H69.5902Z" fill="#818CF8"/>
<path fill-rule="evenodd" clip-rule="evenodd" d="M85.918 0.234573V17.3918H90.721L82.7618 40H87.1851L89.077 34.3591H97.6774L99.5727 40H103.996L96.0258 17.3918H97.144V14.7864H89.0261V10.1033H96.4989V7.49791H89.0261V2.83999H97.0769V0.234573H85.918ZM96.559 31.0304L93.4627 21.8151H93.284L90.1934 31.0304H96.559Z" fill="#818CF8"/>
<path d="M107.009 17.1237V40H121.977V36.5261H111.153V30.282H121.117V26.8082H111.153V20.5976H121.888V17.1237H107.009Z" fill="#818CF8"/>
<path d="M114.46 12.2089L116.727 15.0684H120.268V14.912L116.046 10.0866H112.885L108.651 14.912V15.0684H112.192L114.46 12.2089Z" fill="#818CF8"/>
<defs>
<filter id="filter0_f_1307_1043" x="150.783" y="7.60732" width="4.95637" height="23.0109" filterUnits="userSpaceOnUse" color-interpolation-filters="sRGB">
<feFlood flood-opacity="0" result="BackgroundImageFix"/>
<feBlend mode="normal" in="SourceGraphic" in2="BackgroundImageFix" result="shape"/>
<feGaussianBlur stdDeviation="0.45" result="effect1_foregroundBlur_1307_1043"/>
</filter>
<radialGradient id="paint0_radial_1307_1043" cx="0" cy="0" r="1" gradientUnits="userSpaceOnUse" gradientTransform="translate(159.58 9.9997) rotate(78.923) scale(38.4435 29.7298)">
<stop stop-color="#EEF2FF"/>
<stop offset="0.457" stop-color="#E0E7FF"/>
<stop offset="0.708" stop-color="#E0E7FF"/>
<stop offset="1" stop-color="#A5B4FC"/>
</radialGradient>
<linearGradient id="paint1_linear_1307_1043" x1="183.556" y1="22.9545" x2="166.031" y2="25.3291" gradientUnits="userSpaceOnUse">
<stop offset="0.399" stop-color="#96969E"/>
<stop offset="1" stop-color="#9A959E" stop-opacity="0"/>
</linearGradient>
<radialGradient id="paint2_radial_1307_1043" cx="0" cy="0" r="1" gradientUnits="userSpaceOnUse" gradientTransform="translate(152.573 28.2545) rotate(-46.206) scale(36.4775 39.4838)">
<stop offset="0.844" stop-color="#95959E" stop-opacity="0"/>
<stop offset="0.949" stop-color="#949296"/>
</radialGradient>
<radialGradient id="paint3_radial_1307_1043" cx="0" cy="0" r="1" gradientUnits="userSpaceOnUse" gradientTransform="translate(146.722 26.5008) rotate(-24.613) scale(15.6072 37.9484)">
<stop offset="0.022" stop-color="#A5B4FC"/>
<stop offset="1" stop-color="#A5B4FC" stop-opacity="0"/>
</radialGradient>
<radialGradient id="paint4_radial_1307_1043" cx="0" cy="0" r="1" gradientUnits="userSpaceOnUse" gradientTransform="translate(151.842 24.0127) scale(10.0934 28.6709)">
<stop stop-color="#A5A5B0"/>
<stop offset="1" stop-color="#ABA5B0" stop-opacity="0"/>
</radialGradient>
<radialGradient id="paint5_radial_1307_1043" cx="0" cy="0" r="1" gradientUnits="userSpaceOnUse" gradientTransform="translate(147.307 28.1077) rotate(-42.847) scale(13.7667 37.9316)">
<stop stop-color="#A5B4FC"/>
<stop offset="1" stop-color="#A5B4FC" stop-opacity="0"/>
</radialGradient>
<radialGradient id="paint6_radial_1307_1043" cx="0" cy="0" r="1" gradientUnits="userSpaceOnUse" gradientTransform="translate(155.167 7.39818) rotate(39.036) scale(6.39053 12.1558)">
<stop stop-color="#F3F2F4"/>
<stop offset="1" stop-color="#F3F2F4" stop-opacity="0"/>
</radialGradient>
<radialGradient id="paint7_radial_1307_1043" cx="0" cy="0" r="1" gradientUnits="userSpaceOnUse" gradientTransform="translate(134.922 12.727) rotate(76.49) scale(35.996 27.8371)">
<stop stop-color="#EEF2FF"/>
<stop offset="0.457" stop-color="#E0E7FF"/>
<stop offset="0.708" stop-color="#C7D2FE"/>
<stop offset="1" stop-color="#CFABE4"/>
<stop offset="1" stop-color="#A5B4FC"/>
</radialGradient>
<linearGradient id="paint8_linear_1307_1043" x1="159.92" y1="22.9545" x2="142.647" y2="24.5455" gradientUnits="userSpaceOnUse">
<stop offset="0.212" stop-color="#97969E"/>
<stop offset="1" stop-color="#9A959E" stop-opacity="0"/>
</linearGradient>
<radialGradient id="paint9_radial_1307_1043" cx="0" cy="0" r="1" gradientUnits="userSpaceOnUse" gradientTransform="translate(131.531 7.39795) rotate(39.036) scale(6.39053 12.1558)">
<stop stop-color="#F3F2F4"/>
<stop offset="1" stop-color="#F3F2F4" stop-opacity="0"/>
</radialGradient>
<linearGradient id="paint10_linear_1307_1043" x1="146" y1="9.09094" x2="146" y2="30.9091" gradientUnits="userSpaceOnUse">
<stop offset="0.354" stop-color="#232224"/>
<stop offset="1" stop-color="#3730A3"/>
</linearGradient>
<radialGradient id="paint11_radial_1307_1043" cx="0" cy="0" r="1" gradientUnits="userSpaceOnUse" gradientTransform="translate(144.353 18.8637) rotate(90) scale(12.0455 3.95242)">
<stop offset="0.354" stop-color="#312E81"/>
<stop offset="1" stop-color="#312E81" stop-opacity="0"/>
</radialGradient>
<linearGradient id="paint12_linear_1307_1043" x1="169.522" y1="9.09094" x2="169.522" y2="30.9091" gradientUnits="userSpaceOnUse">
<stop offset="0.354" stop-color="#232224"/>
<stop offset="1" stop-color="#3730A3"/>
</linearGradient>
<radialGradient id="paint13_radial_1307_1043" cx="0" cy="0" r="1" gradientUnits="userSpaceOnUse" gradientTransform="translate(167.875 18.8637) rotate(90) scale(12.0455 3.95242)">
<stop offset="0.354" stop-color="#312E81"/>
<stop offset="1" stop-color="#312E81" stop-opacity="0"/>
</radialGradient>
<radialGradient id="paint14_radial_1307_1043" cx="0" cy="0" r="1" gradientUnits="userSpaceOnUse" gradientTransform="translate(167.818 13.3536) rotate(92.2599) scale(4.32155 4.54795)">
<stop stop-color="white"/>
<stop offset="1" stop-color="#F4F4F4" stop-opacity="0"/>
</radialGradient>
<radialGradient id="paint15_radial_1307_1043" cx="0" cy="0" r="1" gradientUnits="userSpaceOnUse" gradientTransform="translate(144.188 13.3525) rotate(92.2599) scale(4.32155 4.54795)">
<stop stop-color="white"/>
<stop offset="1" stop-color="#F4F4F4" stop-opacity="0"/>
</radialGradient>
</defs>
</svg>
